<mxfile host="app.diagrams.net" agent="Mozilla/5.0 (Windows NT 10.0; Win64; x64) AppleWebKit/537.36 (KHTML, like Gecko) Chrome/132.0.0.0 Safari/537.36" version="26.0.11">
  <diagram name="Page-1" id="3wMDsEtrmeuS3GW5kOqG">
    <mxGraphModel dx="1194" dy="558" grid="1" gridSize="10" guides="1" tooltips="1" connect="1" arrows="1" fold="1" page="1" pageScale="1" pageWidth="827" pageHeight="1169" math="0" shadow="0">
      <root>
        <mxCell id="0" />
        <mxCell id="1" parent="0" />
        <mxCell id="bqHfM5aKzVKN1N0kIi2Q-1" value="Customer" style="shape=umlLifeline;perimeter=lifelinePerimeter;whiteSpace=wrap;container=1;dropTarget=0;collapsible=0;recursiveResize=0;outlineConnect=0;portConstraint=eastwest;newEdgeStyle={&quot;edgeStyle&quot;:&quot;elbowEdgeStyle&quot;,&quot;elbow&quot;:&quot;vertical&quot;,&quot;curved&quot;:0,&quot;rounded&quot;:0};size=65;" vertex="1" parent="1">
          <mxGeometry x="20" y="20" width="150" height="622" as="geometry" />
        </mxCell>
        <mxCell id="bqHfM5aKzVKN1N0kIi2Q-2" value="BillingSystem" style="shape=umlLifeline;perimeter=lifelinePerimeter;whiteSpace=wrap;container=1;dropTarget=0;collapsible=0;recursiveResize=0;outlineConnect=0;portConstraint=eastwest;newEdgeStyle={&quot;edgeStyle&quot;:&quot;elbowEdgeStyle&quot;,&quot;elbow&quot;:&quot;vertical&quot;,&quot;curved&quot;:0,&quot;rounded&quot;:0};size=65;" vertex="1" parent="1">
          <mxGeometry x="260" y="20" width="150" height="622" as="geometry" />
        </mxCell>
        <mxCell id="bqHfM5aKzVKN1N0kIi2Q-3" value="InventorySystem" style="shape=umlLifeline;perimeter=lifelinePerimeter;whiteSpace=wrap;container=1;dropTarget=0;collapsible=0;recursiveResize=0;outlineConnect=0;portConstraint=eastwest;newEdgeStyle={&quot;edgeStyle&quot;:&quot;elbowEdgeStyle&quot;,&quot;elbow&quot;:&quot;vertical&quot;,&quot;curved&quot;:0,&quot;rounded&quot;:0};size=65;" vertex="1" parent="1">
          <mxGeometry x="487" y="20" width="150" height="622" as="geometry" />
        </mxCell>
        <mxCell id="bqHfM5aKzVKN1N0kIi2Q-4" value="PaymentGateway" style="shape=umlLifeline;perimeter=lifelinePerimeter;whiteSpace=wrap;container=1;dropTarget=0;collapsible=0;recursiveResize=0;outlineConnect=0;portConstraint=eastwest;newEdgeStyle={&quot;edgeStyle&quot;:&quot;elbowEdgeStyle&quot;,&quot;elbow&quot;:&quot;vertical&quot;,&quot;curved&quot;:0,&quot;rounded&quot;:0};size=65;" vertex="1" parent="1">
          <mxGeometry x="687" y="20" width="150" height="622" as="geometry" />
        </mxCell>
        <mxCell id="bqHfM5aKzVKN1N0kIi2Q-5" value="Select items" style="verticalAlign=bottom;edgeStyle=elbowEdgeStyle;elbow=vertical;curved=0;rounded=0;endArrow=block;" edge="1" parent="1" source="bqHfM5aKzVKN1N0kIi2Q-1" target="bqHfM5aKzVKN1N0kIi2Q-2">
          <mxGeometry relative="1" as="geometry">
            <Array as="points">
              <mxPoint x="224" y="129" />
            </Array>
          </mxGeometry>
        </mxCell>
        <mxCell id="bqHfM5aKzVKN1N0kIi2Q-6" value="Check item availability" style="verticalAlign=bottom;edgeStyle=elbowEdgeStyle;elbow=vertical;curved=0;rounded=0;endArrow=block;" edge="1" parent="1" source="bqHfM5aKzVKN1N0kIi2Q-2" target="bqHfM5aKzVKN1N0kIi2Q-3">
          <mxGeometry relative="1" as="geometry">
            <Array as="points">
              <mxPoint x="457" y="183" />
            </Array>
          </mxGeometry>
        </mxCell>
        <mxCell id="bqHfM5aKzVKN1N0kIi2Q-7" value="Confirm availability" style="verticalAlign=bottom;edgeStyle=elbowEdgeStyle;elbow=vertical;curved=0;rounded=0;dashed=1;dashPattern=2 3;endArrow=block;" edge="1" parent="1" source="bqHfM5aKzVKN1N0kIi2Q-3" target="bqHfM5aKzVKN1N0kIi2Q-2">
          <mxGeometry relative="1" as="geometry">
            <Array as="points">
              <mxPoint x="460" y="237" />
            </Array>
          </mxGeometry>
        </mxCell>
        <mxCell id="bqHfM5aKzVKN1N0kIi2Q-8" value="Calculate total price" style="curved=1;endArrow=block;rounded=0;" edge="1" parent="1" source="bqHfM5aKzVKN1N0kIi2Q-2" target="bqHfM5aKzVKN1N0kIi2Q-2">
          <mxGeometry relative="1" as="geometry">
            <Array as="points">
              <mxPoint x="386" y="291" />
              <mxPoint x="386" y="321" />
            </Array>
          </mxGeometry>
        </mxCell>
        <mxCell id="bqHfM5aKzVKN1N0kIi2Q-9" value="Provide payment details" style="verticalAlign=bottom;edgeStyle=elbowEdgeStyle;elbow=vertical;curved=0;rounded=0;endArrow=block;" edge="1" parent="1" source="bqHfM5aKzVKN1N0kIi2Q-1" target="bqHfM5aKzVKN1N0kIi2Q-2">
          <mxGeometry relative="1" as="geometry">
            <Array as="points">
              <mxPoint x="224" y="375" />
            </Array>
          </mxGeometry>
        </mxCell>
        <mxCell id="bqHfM5aKzVKN1N0kIi2Q-10" value="Process payment" style="verticalAlign=bottom;edgeStyle=elbowEdgeStyle;elbow=vertical;curved=0;rounded=0;endArrow=block;" edge="1" parent="1" source="bqHfM5aKzVKN1N0kIi2Q-2" target="bqHfM5aKzVKN1N0kIi2Q-4">
          <mxGeometry relative="1" as="geometry">
            <Array as="points">
              <mxPoint x="557" y="429" />
            </Array>
          </mxGeometry>
        </mxCell>
        <mxCell id="bqHfM5aKzVKN1N0kIi2Q-11" value="Payment confirmation" style="verticalAlign=bottom;edgeStyle=elbowEdgeStyle;elbow=vertical;curved=0;rounded=0;dashed=1;dashPattern=2 3;endArrow=block;" edge="1" parent="1" source="bqHfM5aKzVKN1N0kIi2Q-4" target="bqHfM5aKzVKN1N0kIi2Q-2">
          <mxGeometry relative="1" as="geometry">
            <Array as="points">
              <mxPoint x="560" y="483" />
            </Array>
          </mxGeometry>
        </mxCell>
        <mxCell id="bqHfM5aKzVKN1N0kIi2Q-12" value="Generate receipt" style="verticalAlign=bottom;edgeStyle=elbowEdgeStyle;elbow=vertical;curved=0;rounded=0;dashed=1;dashPattern=2 3;endArrow=block;" edge="1" parent="1" source="bqHfM5aKzVKN1N0kIi2Q-2" target="bqHfM5aKzVKN1N0kIi2Q-1">
          <mxGeometry relative="1" as="geometry">
            <Array as="points">
              <mxPoint x="227" y="537" />
            </Array>
          </mxGeometry>
        </mxCell>
      </root>
    </mxGraphModel>
  </diagram>
</mxfile>
